M48
; DRILL file {KiCad 8.0.0} date 2024-05-08T19:23:08-0700
; FORMAT={-:-/ absolute / inch / decimal}
; #@! TF.CreationDate,2024-05-08T19:23:08-07:00
; #@! TF.GenerationSoftware,Kicad,Pcbnew,8.0.0
; #@! TF.FileFunction,Plated,1,2,PTH
FMAT,2
INCH
; #@! TA.AperFunction,Plated,PTH,ViaDrill
T1C0.0157
; #@! TA.AperFunction,Plated,PTH,ComponentDrill
T2C0.0276
; #@! TA.AperFunction,Plated,PTH,ComponentDrill
T3C0.0295
; #@! TA.AperFunction,Plated,PTH,ComponentDrill
T4C0.0315
; #@! TA.AperFunction,Plated,PTH,ComponentDrill
T5C0.0354
; #@! TA.AperFunction,Plated,PTH,ComponentDrill
T6C0.0394
; #@! TA.AperFunction,Plated,PTH,ComponentDrill
T7C0.0402
; #@! TA.AperFunction,Plated,PTH,ComponentDrill
T8C0.0520
%
G90
G05
T1
X5.6391Y-2.8485
X5.715Y-3.0698
X5.7799Y-2.992
X5.7882Y-3.0492
X6.0944Y-2.3486
X6.1008Y-2.9678
X6.1619Y-3.2114
X6.1996Y-3.1672
T2
X5.437Y-3.0984
X5.437Y-3.2224
X5.437Y-3.3465
X5.437Y-3.4705
X5.5118Y-3.0984
X5.5118Y-3.2224
X5.5118Y-3.3465
X5.5118Y-3.4705
T3
X4.0748Y-2.0472
X4.0748Y-2.4409
X4.0748Y-2.8346
X4.0748Y-3.2283
X4.1339Y-1.9685
X4.1339Y-2.3622
X4.1339Y-2.7559
X4.1339Y-3.1496
X4.1929Y-2.4409
X4.1929Y-2.8346
X4.1929Y-3.2283
X4.252Y-2.7559
X4.252Y-3.1496
X4.311Y-3.2283
X4.3701Y-3.1496
X4.6654Y-3.2283
X4.7244Y-3.1496
X4.7835Y-3.2283
X4.8425Y-3.1496
X4.9016Y-3.2283
X4.9606Y-3.1496
X5.0197Y-3.2283
X5.0787Y-3.1496
T4
X4.0354Y-3.7815
X4.3307Y-3.7815
T5
X5.6362Y-3.1457
X5.6362Y-3.3642
X5.7362Y-3.1457
X5.7362Y-3.3642
T6
X4.677Y-1.937
X4.777Y-1.937
X4.877Y-1.937
X4.977Y-1.937
X5.0441Y-3.8388
X5.077Y-1.937
X5.1181Y-2.1654
X5.1181Y-2.7654
X5.1441Y-3.8388
X5.177Y-1.937
X5.2181Y-2.1654
X5.2181Y-2.7654
X5.2441Y-3.8388
X5.277Y-1.937
X5.3181Y-2.1654
X5.3181Y-2.7654
X5.3441Y-3.8388
X5.377Y-1.937
X5.4181Y-2.1654
X5.4181Y-2.7654
X5.4441Y-3.8388
X5.477Y-1.937
X5.5181Y-2.1654
X5.5181Y-2.7654
X5.5441Y-3.8388
X5.577Y-1.937
X5.6181Y-2.1654
X5.6181Y-2.7654
X5.6441Y-3.8388
X5.737Y-1.937
X5.7441Y-3.8388
X5.837Y-1.937
X5.937Y-1.937
X5.937Y-3.837
X6.037Y-1.937
X6.037Y-3.837
X6.137Y-1.937
X6.137Y-3.837
X6.237Y-1.937
X6.237Y-3.837
X6.337Y-1.937
X6.337Y-3.837
X6.437Y-1.937
X6.437Y-3.837
T7
X3.1152Y-2.0154
X3.1152Y-2.1154
X3.1152Y-2.2154
X3.1152Y-2.3154
T8
X3.2433Y-2.9965
X3.2433Y-3.0965
X3.2433Y-3.1965
X3.2433Y-3.2965
X3.2433Y-3.3965
X3.2433Y-3.4965
X3.2433Y-3.5965
X3.2433Y-3.6965
X3.8433Y-2.9965
X3.8433Y-3.0965
X3.8433Y-3.1965
X3.8433Y-3.2965
X3.8433Y-3.3965
X3.8433Y-3.4965
X3.8433Y-3.5965
X3.8433Y-3.6965
M30
