%TF.GenerationSoftware,KiCad,Pcbnew,8.0.0*%
%TF.CreationDate,2024-05-08T19:23:15-07:00*%
%TF.ProjectId,CPE301D_KICAD,43504533-3031-4445-9f4b-494341442e6b,rev?*%
%TF.SameCoordinates,Original*%
%TF.FileFunction,Legend,Top*%
%TF.FilePolarity,Positive*%
%FSLAX46Y46*%
G04 Gerber Fmt 4.6, Leading zero omitted, Abs format (unit mm)*
G04 Created by KiCad (PCBNEW 8.0.0) date 2024-05-08 19:23:15*
%MOMM*%
%LPD*%
G01*
G04 APERTURE LIST*
%ADD10C,0.150000*%
%ADD11C,0.127000*%
%ADD12C,0.200000*%
%ADD13C,0.120000*%
G04 APERTURE END LIST*
D10*
X75262829Y-36277250D02*
X76072774Y-36277250D01*
X76072774Y-36277250D02*
X76168062Y-36229607D01*
X76168062Y-36229607D02*
X76215706Y-36181963D01*
X76215706Y-36181963D02*
X76263349Y-36086675D01*
X76263349Y-36086675D02*
X76263349Y-35896100D01*
X76263349Y-35896100D02*
X76215706Y-35800812D01*
X76215706Y-35800812D02*
X76168062Y-35753169D01*
X76168062Y-35753169D02*
X76072774Y-35705525D01*
X76072774Y-35705525D02*
X75262829Y-35705525D01*
X75262829Y-34752648D02*
X75262829Y-35229086D01*
X75262829Y-35229086D02*
X75739267Y-35276730D01*
X75739267Y-35276730D02*
X75691624Y-35229086D01*
X75691624Y-35229086D02*
X75643980Y-35133799D01*
X75643980Y-35133799D02*
X75643980Y-34895580D01*
X75643980Y-34895580D02*
X75691624Y-34800292D01*
X75691624Y-34800292D02*
X75739267Y-34752648D01*
X75739267Y-34752648D02*
X75834555Y-34705005D01*
X75834555Y-34705005D02*
X76072774Y-34705005D01*
X76072774Y-34705005D02*
X76168062Y-34752648D01*
X76168062Y-34752648D02*
X76215706Y-34800292D01*
X76215706Y-34800292D02*
X76263349Y-34895580D01*
X76263349Y-34895580D02*
X76263349Y-35133799D01*
X76263349Y-35133799D02*
X76215706Y-35229086D01*
X76215706Y-35229086D02*
X76168062Y-35276730D01*
X126018780Y-95257800D02*
X126110209Y-95288276D01*
X126110209Y-95288276D02*
X126262590Y-95288276D01*
X126262590Y-95288276D02*
X126323542Y-95257800D01*
X126323542Y-95257800D02*
X126354018Y-95227323D01*
X126354018Y-95227323D02*
X126384495Y-95166371D01*
X126384495Y-95166371D02*
X126384495Y-95105419D01*
X126384495Y-95105419D02*
X126354018Y-95044466D01*
X126354018Y-95044466D02*
X126323542Y-95013990D01*
X126323542Y-95013990D02*
X126262590Y-94983514D01*
X126262590Y-94983514D02*
X126140685Y-94953038D01*
X126140685Y-94953038D02*
X126079733Y-94922561D01*
X126079733Y-94922561D02*
X126049256Y-94892085D01*
X126049256Y-94892085D02*
X126018780Y-94831133D01*
X126018780Y-94831133D02*
X126018780Y-94770180D01*
X126018780Y-94770180D02*
X126049256Y-94709228D01*
X126049256Y-94709228D02*
X126079733Y-94678752D01*
X126079733Y-94678752D02*
X126140685Y-94648276D01*
X126140685Y-94648276D02*
X126293066Y-94648276D01*
X126293066Y-94648276D02*
X126384495Y-94678752D01*
X126628304Y-94709228D02*
X126658780Y-94678752D01*
X126658780Y-94678752D02*
X126719733Y-94648276D01*
X126719733Y-94648276D02*
X126872114Y-94648276D01*
X126872114Y-94648276D02*
X126933066Y-94678752D01*
X126933066Y-94678752D02*
X126963542Y-94709228D01*
X126963542Y-94709228D02*
X126994019Y-94770180D01*
X126994019Y-94770180D02*
X126994019Y-94831133D01*
X126994019Y-94831133D02*
X126963542Y-94922561D01*
X126963542Y-94922561D02*
X126597828Y-95288276D01*
X126597828Y-95288276D02*
X126994019Y-95288276D01*
X133085780Y-92257800D02*
X133177209Y-92288276D01*
X133177209Y-92288276D02*
X133329590Y-92288276D01*
X133329590Y-92288276D02*
X133390542Y-92257800D01*
X133390542Y-92257800D02*
X133421018Y-92227323D01*
X133421018Y-92227323D02*
X133451495Y-92166371D01*
X133451495Y-92166371D02*
X133451495Y-92105419D01*
X133451495Y-92105419D02*
X133421018Y-92044466D01*
X133421018Y-92044466D02*
X133390542Y-92013990D01*
X133390542Y-92013990D02*
X133329590Y-91983514D01*
X133329590Y-91983514D02*
X133207685Y-91953038D01*
X133207685Y-91953038D02*
X133146733Y-91922561D01*
X133146733Y-91922561D02*
X133116256Y-91892085D01*
X133116256Y-91892085D02*
X133085780Y-91831133D01*
X133085780Y-91831133D02*
X133085780Y-91770180D01*
X133085780Y-91770180D02*
X133116256Y-91709228D01*
X133116256Y-91709228D02*
X133146733Y-91678752D01*
X133146733Y-91678752D02*
X133207685Y-91648276D01*
X133207685Y-91648276D02*
X133360066Y-91648276D01*
X133360066Y-91648276D02*
X133451495Y-91678752D01*
X134061019Y-92288276D02*
X133695304Y-92288276D01*
X133878161Y-92288276D02*
X133878161Y-91648276D01*
X133878161Y-91648276D02*
X133817209Y-91739704D01*
X133817209Y-91739704D02*
X133756257Y-91800657D01*
X133756257Y-91800657D02*
X133695304Y-91831133D01*
X156738095Y-89454819D02*
X156738095Y-90264342D01*
X156738095Y-90264342D02*
X156785714Y-90359580D01*
X156785714Y-90359580D02*
X156833333Y-90407200D01*
X156833333Y-90407200D02*
X156928571Y-90454819D01*
X156928571Y-90454819D02*
X157119047Y-90454819D01*
X157119047Y-90454819D02*
X157214285Y-90407200D01*
X157214285Y-90407200D02*
X157261904Y-90359580D01*
X157261904Y-90359580D02*
X157309523Y-90264342D01*
X157309523Y-90264342D02*
X157309523Y-89454819D01*
X158214285Y-89788152D02*
X158214285Y-90454819D01*
X157976190Y-89407200D02*
X157738095Y-90121485D01*
X157738095Y-90121485D02*
X158357142Y-90121485D01*
X153943095Y-89454819D02*
X153943095Y-90264342D01*
X153943095Y-90264342D02*
X153990714Y-90359580D01*
X153990714Y-90359580D02*
X154038333Y-90407200D01*
X154038333Y-90407200D02*
X154133571Y-90454819D01*
X154133571Y-90454819D02*
X154324047Y-90454819D01*
X154324047Y-90454819D02*
X154419285Y-90407200D01*
X154419285Y-90407200D02*
X154466904Y-90359580D01*
X154466904Y-90359580D02*
X154514523Y-90264342D01*
X154514523Y-90264342D02*
X154514523Y-89454819D01*
X154895476Y-89454819D02*
X155514523Y-89454819D01*
X155514523Y-89454819D02*
X155181190Y-89835771D01*
X155181190Y-89835771D02*
X155324047Y-89835771D01*
X155324047Y-89835771D02*
X155419285Y-89883390D01*
X155419285Y-89883390D02*
X155466904Y-89931009D01*
X155466904Y-89931009D02*
X155514523Y-90026247D01*
X155514523Y-90026247D02*
X155514523Y-90264342D01*
X155514523Y-90264342D02*
X155466904Y-90359580D01*
X155466904Y-90359580D02*
X155419285Y-90407200D01*
X155419285Y-90407200D02*
X155324047Y-90454819D01*
X155324047Y-90454819D02*
X155038333Y-90454819D01*
X155038333Y-90454819D02*
X154943095Y-90407200D01*
X154943095Y-90407200D02*
X154895476Y-90359580D01*
X83704895Y-72841619D02*
X83704895Y-73651142D01*
X83704895Y-73651142D02*
X83752514Y-73746380D01*
X83752514Y-73746380D02*
X83800133Y-73794000D01*
X83800133Y-73794000D02*
X83895371Y-73841619D01*
X83895371Y-73841619D02*
X84085847Y-73841619D01*
X84085847Y-73841619D02*
X84181085Y-73794000D01*
X84181085Y-73794000D02*
X84228704Y-73746380D01*
X84228704Y-73746380D02*
X84276323Y-73651142D01*
X84276323Y-73651142D02*
X84276323Y-72841619D01*
X84704895Y-72936857D02*
X84752514Y-72889238D01*
X84752514Y-72889238D02*
X84847752Y-72841619D01*
X84847752Y-72841619D02*
X85085847Y-72841619D01*
X85085847Y-72841619D02*
X85181085Y-72889238D01*
X85181085Y-72889238D02*
X85228704Y-72936857D01*
X85228704Y-72936857D02*
X85276323Y-73032095D01*
X85276323Y-73032095D02*
X85276323Y-73127333D01*
X85276323Y-73127333D02*
X85228704Y-73270190D01*
X85228704Y-73270190D02*
X84657276Y-73841619D01*
X84657276Y-73841619D02*
X85276323Y-73841619D01*
X166166666Y-66154819D02*
X166166666Y-66869104D01*
X166166666Y-66869104D02*
X166119047Y-67011961D01*
X166119047Y-67011961D02*
X166023809Y-67107200D01*
X166023809Y-67107200D02*
X165880952Y-67154819D01*
X165880952Y-67154819D02*
X165785714Y-67154819D01*
X167071428Y-66154819D02*
X166880952Y-66154819D01*
X166880952Y-66154819D02*
X166785714Y-66202438D01*
X166785714Y-66202438D02*
X166738095Y-66250057D01*
X166738095Y-66250057D02*
X166642857Y-66392914D01*
X166642857Y-66392914D02*
X166595238Y-66583390D01*
X166595238Y-66583390D02*
X166595238Y-66964342D01*
X166595238Y-66964342D02*
X166642857Y-67059580D01*
X166642857Y-67059580D02*
X166690476Y-67107200D01*
X166690476Y-67107200D02*
X166785714Y-67154819D01*
X166785714Y-67154819D02*
X166976190Y-67154819D01*
X166976190Y-67154819D02*
X167071428Y-67107200D01*
X167071428Y-67107200D02*
X167119047Y-67059580D01*
X167119047Y-67059580D02*
X167166666Y-66964342D01*
X167166666Y-66964342D02*
X167166666Y-66726247D01*
X167166666Y-66726247D02*
X167119047Y-66631009D01*
X167119047Y-66631009D02*
X167071428Y-66583390D01*
X167071428Y-66583390D02*
X166976190Y-66535771D01*
X166976190Y-66535771D02*
X166785714Y-66535771D01*
X166785714Y-66535771D02*
X166690476Y-66583390D01*
X166690476Y-66583390D02*
X166642857Y-66631009D01*
X166642857Y-66631009D02*
X166595238Y-66726247D01*
X119833333Y-99359580D02*
X119785714Y-99407200D01*
X119785714Y-99407200D02*
X119642857Y-99454819D01*
X119642857Y-99454819D02*
X119547619Y-99454819D01*
X119547619Y-99454819D02*
X119404762Y-99407200D01*
X119404762Y-99407200D02*
X119309524Y-99311961D01*
X119309524Y-99311961D02*
X119261905Y-99216723D01*
X119261905Y-99216723D02*
X119214286Y-99026247D01*
X119214286Y-99026247D02*
X119214286Y-98883390D01*
X119214286Y-98883390D02*
X119261905Y-98692914D01*
X119261905Y-98692914D02*
X119309524Y-98597676D01*
X119309524Y-98597676D02*
X119404762Y-98502438D01*
X119404762Y-98502438D02*
X119547619Y-98454819D01*
X119547619Y-98454819D02*
X119642857Y-98454819D01*
X119642857Y-98454819D02*
X119785714Y-98502438D01*
X119785714Y-98502438D02*
X119833333Y-98550057D01*
X120214286Y-98550057D02*
X120261905Y-98502438D01*
X120261905Y-98502438D02*
X120357143Y-98454819D01*
X120357143Y-98454819D02*
X120595238Y-98454819D01*
X120595238Y-98454819D02*
X120690476Y-98502438D01*
X120690476Y-98502438D02*
X120738095Y-98550057D01*
X120738095Y-98550057D02*
X120785714Y-98645295D01*
X120785714Y-98645295D02*
X120785714Y-98740533D01*
X120785714Y-98740533D02*
X120738095Y-98883390D01*
X120738095Y-98883390D02*
X120166667Y-99454819D01*
X120166667Y-99454819D02*
X120785714Y-99454819D01*
X105416666Y-65154819D02*
X105416666Y-65869104D01*
X105416666Y-65869104D02*
X105369047Y-66011961D01*
X105369047Y-66011961D02*
X105273809Y-66107200D01*
X105273809Y-66107200D02*
X105130952Y-66154819D01*
X105130952Y-66154819D02*
X105035714Y-66154819D01*
X106035714Y-65583390D02*
X105940476Y-65535771D01*
X105940476Y-65535771D02*
X105892857Y-65488152D01*
X105892857Y-65488152D02*
X105845238Y-65392914D01*
X105845238Y-65392914D02*
X105845238Y-65345295D01*
X105845238Y-65345295D02*
X105892857Y-65250057D01*
X105892857Y-65250057D02*
X105940476Y-65202438D01*
X105940476Y-65202438D02*
X106035714Y-65154819D01*
X106035714Y-65154819D02*
X106226190Y-65154819D01*
X106226190Y-65154819D02*
X106321428Y-65202438D01*
X106321428Y-65202438D02*
X106369047Y-65250057D01*
X106369047Y-65250057D02*
X106416666Y-65345295D01*
X106416666Y-65345295D02*
X106416666Y-65392914D01*
X106416666Y-65392914D02*
X106369047Y-65488152D01*
X106369047Y-65488152D02*
X106321428Y-65535771D01*
X106321428Y-65535771D02*
X106226190Y-65583390D01*
X106226190Y-65583390D02*
X106035714Y-65583390D01*
X106035714Y-65583390D02*
X105940476Y-65631009D01*
X105940476Y-65631009D02*
X105892857Y-65678628D01*
X105892857Y-65678628D02*
X105845238Y-65773866D01*
X105845238Y-65773866D02*
X105845238Y-65964342D01*
X105845238Y-65964342D02*
X105892857Y-66059580D01*
X105892857Y-66059580D02*
X105940476Y-66107200D01*
X105940476Y-66107200D02*
X106035714Y-66154819D01*
X106035714Y-66154819D02*
X106226190Y-66154819D01*
X106226190Y-66154819D02*
X106321428Y-66107200D01*
X106321428Y-66107200D02*
X106369047Y-66059580D01*
X106369047Y-66059580D02*
X106416666Y-65964342D01*
X106416666Y-65964342D02*
X106416666Y-65773866D01*
X106416666Y-65773866D02*
X106369047Y-65678628D01*
X106369047Y-65678628D02*
X106321428Y-65631009D01*
X106321428Y-65631009D02*
X106226190Y-65583390D01*
X123416666Y-75154819D02*
X123416666Y-75869104D01*
X123416666Y-75869104D02*
X123369047Y-76011961D01*
X123369047Y-76011961D02*
X123273809Y-76107200D01*
X123273809Y-76107200D02*
X123130952Y-76154819D01*
X123130952Y-76154819D02*
X123035714Y-76154819D01*
X123797619Y-75154819D02*
X124464285Y-75154819D01*
X124464285Y-75154819D02*
X124035714Y-76154819D01*
X159261905Y-90454819D02*
X159261905Y-89454819D01*
X159261905Y-89454819D02*
X159500000Y-89454819D01*
X159500000Y-89454819D02*
X159642857Y-89502438D01*
X159642857Y-89502438D02*
X159738095Y-89597676D01*
X159738095Y-89597676D02*
X159785714Y-89692914D01*
X159785714Y-89692914D02*
X159833333Y-89883390D01*
X159833333Y-89883390D02*
X159833333Y-90026247D01*
X159833333Y-90026247D02*
X159785714Y-90216723D01*
X159785714Y-90216723D02*
X159738095Y-90311961D01*
X159738095Y-90311961D02*
X159642857Y-90407200D01*
X159642857Y-90407200D02*
X159500000Y-90454819D01*
X159500000Y-90454819D02*
X159261905Y-90454819D01*
X160785714Y-90454819D02*
X160214286Y-90454819D01*
X160500000Y-90454819D02*
X160500000Y-89454819D01*
X160500000Y-89454819D02*
X160404762Y-89597676D01*
X160404762Y-89597676D02*
X160309524Y-89692914D01*
X160309524Y-89692914D02*
X160214286Y-89740533D01*
X124804819Y-97838333D02*
X125519104Y-97838333D01*
X125519104Y-97838333D02*
X125661961Y-97885952D01*
X125661961Y-97885952D02*
X125757200Y-97981190D01*
X125757200Y-97981190D02*
X125804819Y-98124047D01*
X125804819Y-98124047D02*
X125804819Y-98219285D01*
X125804819Y-96838333D02*
X125804819Y-97409761D01*
X125804819Y-97124047D02*
X124804819Y-97124047D01*
X124804819Y-97124047D02*
X124947676Y-97219285D01*
X124947676Y-97219285D02*
X125042914Y-97314523D01*
X125042914Y-97314523D02*
X125090533Y-97409761D01*
X162154819Y-55761904D02*
X162964342Y-55761904D01*
X162964342Y-55761904D02*
X163059580Y-55714285D01*
X163059580Y-55714285D02*
X163107200Y-55666666D01*
X163107200Y-55666666D02*
X163154819Y-55571428D01*
X163154819Y-55571428D02*
X163154819Y-55380952D01*
X163154819Y-55380952D02*
X163107200Y-55285714D01*
X163107200Y-55285714D02*
X163059580Y-55238095D01*
X163059580Y-55238095D02*
X162964342Y-55190476D01*
X162964342Y-55190476D02*
X162154819Y-55190476D01*
X163154819Y-54190476D02*
X163154819Y-54761904D01*
X163154819Y-54476190D02*
X162154819Y-54476190D01*
X162154819Y-54476190D02*
X162297676Y-54571428D01*
X162297676Y-54571428D02*
X162392914Y-54666666D01*
X162392914Y-54666666D02*
X162440533Y-54761904D01*
X159833333Y-93454819D02*
X159500000Y-92978628D01*
X159261905Y-93454819D02*
X159261905Y-92454819D01*
X159261905Y-92454819D02*
X159642857Y-92454819D01*
X159642857Y-92454819D02*
X159738095Y-92502438D01*
X159738095Y-92502438D02*
X159785714Y-92550057D01*
X159785714Y-92550057D02*
X159833333Y-92645295D01*
X159833333Y-92645295D02*
X159833333Y-92788152D01*
X159833333Y-92788152D02*
X159785714Y-92883390D01*
X159785714Y-92883390D02*
X159738095Y-92931009D01*
X159738095Y-92931009D02*
X159642857Y-92978628D01*
X159642857Y-92978628D02*
X159261905Y-92978628D01*
X160214286Y-92550057D02*
X160261905Y-92502438D01*
X160261905Y-92502438D02*
X160357143Y-92454819D01*
X160357143Y-92454819D02*
X160595238Y-92454819D01*
X160595238Y-92454819D02*
X160690476Y-92502438D01*
X160690476Y-92502438D02*
X160738095Y-92550057D01*
X160738095Y-92550057D02*
X160785714Y-92645295D01*
X160785714Y-92645295D02*
X160785714Y-92740533D01*
X160785714Y-92740533D02*
X160738095Y-92883390D01*
X160738095Y-92883390D02*
X160166667Y-93454819D01*
X160166667Y-93454819D02*
X160785714Y-93454819D01*
X106440476Y-75154819D02*
X106440476Y-75869104D01*
X106440476Y-75869104D02*
X106392857Y-76011961D01*
X106392857Y-76011961D02*
X106297619Y-76107200D01*
X106297619Y-76107200D02*
X106154762Y-76154819D01*
X106154762Y-76154819D02*
X106059524Y-76154819D01*
X107440476Y-76154819D02*
X106869048Y-76154819D01*
X107154762Y-76154819D02*
X107154762Y-75154819D01*
X107154762Y-75154819D02*
X107059524Y-75297676D01*
X107059524Y-75297676D02*
X106964286Y-75392914D01*
X106964286Y-75392914D02*
X106869048Y-75440533D01*
X108059524Y-75154819D02*
X108154762Y-75154819D01*
X108154762Y-75154819D02*
X108250000Y-75202438D01*
X108250000Y-75202438D02*
X108297619Y-75250057D01*
X108297619Y-75250057D02*
X108345238Y-75345295D01*
X108345238Y-75345295D02*
X108392857Y-75535771D01*
X108392857Y-75535771D02*
X108392857Y-75773866D01*
X108392857Y-75773866D02*
X108345238Y-75964342D01*
X108345238Y-75964342D02*
X108297619Y-76059580D01*
X108297619Y-76059580D02*
X108250000Y-76107200D01*
X108250000Y-76107200D02*
X108154762Y-76154819D01*
X108154762Y-76154819D02*
X108059524Y-76154819D01*
X108059524Y-76154819D02*
X107964286Y-76107200D01*
X107964286Y-76107200D02*
X107916667Y-76059580D01*
X107916667Y-76059580D02*
X107869048Y-75964342D01*
X107869048Y-75964342D02*
X107821429Y-75773866D01*
X107821429Y-75773866D02*
X107821429Y-75535771D01*
X107821429Y-75535771D02*
X107869048Y-75345295D01*
X107869048Y-75345295D02*
X107916667Y-75250057D01*
X107916667Y-75250057D02*
X107964286Y-75202438D01*
X107964286Y-75202438D02*
X108059524Y-75154819D01*
X149261905Y-90454819D02*
X149261905Y-89454819D01*
X149261905Y-89454819D02*
X149500000Y-89454819D01*
X149500000Y-89454819D02*
X149642857Y-89502438D01*
X149642857Y-89502438D02*
X149738095Y-89597676D01*
X149738095Y-89597676D02*
X149785714Y-89692914D01*
X149785714Y-89692914D02*
X149833333Y-89883390D01*
X149833333Y-89883390D02*
X149833333Y-90026247D01*
X149833333Y-90026247D02*
X149785714Y-90216723D01*
X149785714Y-90216723D02*
X149738095Y-90311961D01*
X149738095Y-90311961D02*
X149642857Y-90407200D01*
X149642857Y-90407200D02*
X149500000Y-90454819D01*
X149500000Y-90454819D02*
X149261905Y-90454819D01*
X150166667Y-89454819D02*
X150785714Y-89454819D01*
X150785714Y-89454819D02*
X150452381Y-89835771D01*
X150452381Y-89835771D02*
X150595238Y-89835771D01*
X150595238Y-89835771D02*
X150690476Y-89883390D01*
X150690476Y-89883390D02*
X150738095Y-89931009D01*
X150738095Y-89931009D02*
X150785714Y-90026247D01*
X150785714Y-90026247D02*
X150785714Y-90264342D01*
X150785714Y-90264342D02*
X150738095Y-90359580D01*
X150738095Y-90359580D02*
X150690476Y-90407200D01*
X150690476Y-90407200D02*
X150595238Y-90454819D01*
X150595238Y-90454819D02*
X150309524Y-90454819D01*
X150309524Y-90454819D02*
X150214286Y-90407200D01*
X150214286Y-90407200D02*
X150166667Y-90359580D01*
X157333333Y-93454819D02*
X157000000Y-92978628D01*
X156761905Y-93454819D02*
X156761905Y-92454819D01*
X156761905Y-92454819D02*
X157142857Y-92454819D01*
X157142857Y-92454819D02*
X157238095Y-92502438D01*
X157238095Y-92502438D02*
X157285714Y-92550057D01*
X157285714Y-92550057D02*
X157333333Y-92645295D01*
X157333333Y-92645295D02*
X157333333Y-92788152D01*
X157333333Y-92788152D02*
X157285714Y-92883390D01*
X157285714Y-92883390D02*
X157238095Y-92931009D01*
X157238095Y-92931009D02*
X157142857Y-92978628D01*
X157142857Y-92978628D02*
X156761905Y-92978628D01*
X158190476Y-92788152D02*
X158190476Y-93454819D01*
X157952381Y-92407200D02*
X157714286Y-93121485D01*
X157714286Y-93121485D02*
X158333333Y-93121485D01*
X152333333Y-90454819D02*
X152000000Y-89978628D01*
X151761905Y-90454819D02*
X151761905Y-89454819D01*
X151761905Y-89454819D02*
X152142857Y-89454819D01*
X152142857Y-89454819D02*
X152238095Y-89502438D01*
X152238095Y-89502438D02*
X152285714Y-89550057D01*
X152285714Y-89550057D02*
X152333333Y-89645295D01*
X152333333Y-89645295D02*
X152333333Y-89788152D01*
X152333333Y-89788152D02*
X152285714Y-89883390D01*
X152285714Y-89883390D02*
X152238095Y-89931009D01*
X152238095Y-89931009D02*
X152142857Y-89978628D01*
X152142857Y-89978628D02*
X151761905Y-89978628D01*
X152666667Y-89454819D02*
X153285714Y-89454819D01*
X153285714Y-89454819D02*
X152952381Y-89835771D01*
X152952381Y-89835771D02*
X153095238Y-89835771D01*
X153095238Y-89835771D02*
X153190476Y-89883390D01*
X153190476Y-89883390D02*
X153238095Y-89931009D01*
X153238095Y-89931009D02*
X153285714Y-90026247D01*
X153285714Y-90026247D02*
X153285714Y-90264342D01*
X153285714Y-90264342D02*
X153238095Y-90359580D01*
X153238095Y-90359580D02*
X153190476Y-90407200D01*
X153190476Y-90407200D02*
X153095238Y-90454819D01*
X153095238Y-90454819D02*
X152809524Y-90454819D01*
X152809524Y-90454819D02*
X152714286Y-90407200D01*
X152714286Y-90407200D02*
X152666667Y-90359580D01*
X103916666Y-45154819D02*
X103916666Y-45869104D01*
X103916666Y-45869104D02*
X103869047Y-46011961D01*
X103869047Y-46011961D02*
X103773809Y-46107200D01*
X103773809Y-46107200D02*
X103630952Y-46154819D01*
X103630952Y-46154819D02*
X103535714Y-46154819D01*
X104869047Y-45154819D02*
X104392857Y-45154819D01*
X104392857Y-45154819D02*
X104345238Y-45631009D01*
X104345238Y-45631009D02*
X104392857Y-45583390D01*
X104392857Y-45583390D02*
X104488095Y-45535771D01*
X104488095Y-45535771D02*
X104726190Y-45535771D01*
X104726190Y-45535771D02*
X104821428Y-45583390D01*
X104821428Y-45583390D02*
X104869047Y-45631009D01*
X104869047Y-45631009D02*
X104916666Y-45726247D01*
X104916666Y-45726247D02*
X104916666Y-45964342D01*
X104916666Y-45964342D02*
X104869047Y-46059580D01*
X104869047Y-46059580D02*
X104821428Y-46107200D01*
X104821428Y-46107200D02*
X104726190Y-46154819D01*
X104726190Y-46154819D02*
X104488095Y-46154819D01*
X104488095Y-46154819D02*
X104392857Y-46107200D01*
X104392857Y-46107200D02*
X104345238Y-46059580D01*
X107604761Y-86029819D02*
X107271428Y-85553628D01*
X107033333Y-86029819D02*
X107033333Y-85029819D01*
X107033333Y-85029819D02*
X107414285Y-85029819D01*
X107414285Y-85029819D02*
X107509523Y-85077438D01*
X107509523Y-85077438D02*
X107557142Y-85125057D01*
X107557142Y-85125057D02*
X107604761Y-85220295D01*
X107604761Y-85220295D02*
X107604761Y-85363152D01*
X107604761Y-85363152D02*
X107557142Y-85458390D01*
X107557142Y-85458390D02*
X107509523Y-85506009D01*
X107509523Y-85506009D02*
X107414285Y-85553628D01*
X107414285Y-85553628D02*
X107033333Y-85553628D01*
X107890476Y-85029819D02*
X108223809Y-86029819D01*
X108223809Y-86029819D02*
X108557142Y-85029819D01*
X109414285Y-86029819D02*
X108842857Y-86029819D01*
X109128571Y-86029819D02*
X109128571Y-85029819D01*
X109128571Y-85029819D02*
X109033333Y-85172676D01*
X109033333Y-85172676D02*
X108938095Y-85267914D01*
X108938095Y-85267914D02*
X108842857Y-85315533D01*
X154833333Y-93454819D02*
X154500000Y-92978628D01*
X154261905Y-93454819D02*
X154261905Y-92454819D01*
X154261905Y-92454819D02*
X154642857Y-92454819D01*
X154642857Y-92454819D02*
X154738095Y-92502438D01*
X154738095Y-92502438D02*
X154785714Y-92550057D01*
X154785714Y-92550057D02*
X154833333Y-92645295D01*
X154833333Y-92645295D02*
X154833333Y-92788152D01*
X154833333Y-92788152D02*
X154785714Y-92883390D01*
X154785714Y-92883390D02*
X154738095Y-92931009D01*
X154738095Y-92931009D02*
X154642857Y-92978628D01*
X154642857Y-92978628D02*
X154261905Y-92978628D01*
X155785714Y-93454819D02*
X155214286Y-93454819D01*
X155500000Y-93454819D02*
X155500000Y-92454819D01*
X155500000Y-92454819D02*
X155404762Y-92597676D01*
X155404762Y-92597676D02*
X155309524Y-92692914D01*
X155309524Y-92692914D02*
X155214286Y-92740533D01*
D11*
%TO.C,U5*%
X59855000Y-33500000D02*
X59855000Y-49500000D01*
X59855000Y-60500000D02*
X59855000Y-76500000D01*
X73655000Y-77500000D02*
X73655000Y-76500000D01*
X73655000Y-76500000D02*
X73655000Y-60500000D01*
X73655000Y-60500000D02*
X73655000Y-49500000D01*
X73655000Y-49500000D02*
X73655000Y-33500000D01*
X73655000Y-33500000D02*
X73655000Y-32500000D01*
X73655000Y-32500000D02*
X74855000Y-32500000D01*
X74855000Y-32500000D02*
X74855000Y-77500000D01*
X74855000Y-77500000D02*
X73655000Y-77500000D01*
X73655000Y-33500000D02*
X59855000Y-33500000D01*
X73655000Y-76500000D02*
X59855000Y-76500000D01*
X73655000Y-49500000D02*
X59855000Y-49500000D01*
X73655000Y-60500000D02*
X59855000Y-60500000D01*
%TO.C,S2*%
X120380000Y-91267000D02*
X120380000Y-86367000D01*
X125820000Y-91267000D02*
X125820000Y-86367000D01*
D12*
X125100000Y-84167000D02*
G75*
G02*
X124900000Y-84167000I-100000J0D01*
G01*
X124900000Y-84167000D02*
G75*
G02*
X125100000Y-84167000I100000J0D01*
G01*
D11*
%TO.C,S1*%
X126947000Y-91267000D02*
X126947000Y-86367000D01*
X132387000Y-91267000D02*
X132387000Y-86367000D01*
D12*
X131667000Y-84167000D02*
G75*
G02*
X131467000Y-84167000I-100000J0D01*
G01*
X131467000Y-84167000D02*
G75*
G02*
X131667000Y-84167000I100000J0D01*
G01*
%TO.C,U4*%
X157510000Y-75600000D02*
G75*
G02*
X157310000Y-75600000I-100000J0D01*
G01*
X157310000Y-75600000D02*
G75*
G02*
X157510000Y-75600000I100000J0D01*
G01*
D11*
X159840000Y-75575000D02*
X163840000Y-75575000D01*
X159840000Y-85695000D02*
X163840000Y-85695000D01*
D12*
%TO.C,U3*%
X148150000Y-75600000D02*
G75*
G02*
X147950000Y-75600000I-100000J0D01*
G01*
X147950000Y-75600000D02*
G75*
G02*
X148150000Y-75600000I100000J0D01*
G01*
D11*
X150480000Y-75575000D02*
X154480000Y-75575000D01*
X150480000Y-85695000D02*
X154480000Y-85695000D01*
%TO.C,U2*%
X79840000Y-74840000D02*
X79840000Y-95160000D01*
X100160000Y-95160000D02*
X100160000Y-74840000D01*
D12*
X82480000Y-74271800D02*
G75*
G02*
X82280000Y-74271800I-100000J0D01*
G01*
X82280000Y-74271800D02*
G75*
G02*
X82480000Y-74271800I100000J0D01*
G01*
D11*
X83500000Y-95160000D02*
X96500000Y-95160000D01*
X83500000Y-74840000D02*
X96500000Y-74840000D01*
X81110000Y-74840000D02*
X79840000Y-74840000D01*
X98890000Y-74840000D02*
X100160000Y-74840000D01*
X81110000Y-95160000D02*
X79840000Y-95160000D01*
X98890000Y-95160000D02*
X100160000Y-95160000D01*
D13*
%TO.C,J3*%
X149470000Y-96130000D02*
X150800000Y-96130000D01*
X149470000Y-97460000D02*
X149470000Y-96130000D01*
X152070000Y-96130000D02*
X164830000Y-96130000D01*
X152070000Y-98790000D02*
X152070000Y-96130000D01*
X152070000Y-98790000D02*
X164830000Y-98790000D01*
X164830000Y-98790000D02*
X164830000Y-96130000D01*
%TO.C,J2*%
X117466000Y-47870000D02*
X118796000Y-47870000D01*
X117466000Y-49200000D02*
X117466000Y-47870000D01*
X120066000Y-47870000D02*
X142986000Y-47870000D01*
X120066000Y-50530000D02*
X120066000Y-47870000D01*
X120066000Y-50530000D02*
X142986000Y-50530000D01*
X142986000Y-50530000D02*
X142986000Y-47870000D01*
%TO.C,J4*%
X144390000Y-47870000D02*
X145720000Y-47870000D01*
X144390000Y-49200000D02*
X144390000Y-47870000D01*
X146990000Y-47870000D02*
X164830000Y-47870000D01*
X146990000Y-50530000D02*
X146990000Y-47870000D01*
X146990000Y-50530000D02*
X164830000Y-50530000D01*
X164830000Y-50530000D02*
X164830000Y-47870000D01*
%TO.C,J6*%
X100840000Y-61560000D02*
X100840000Y-63060000D01*
X100840000Y-63060000D02*
X102340000Y-63060000D01*
X101140000Y-56790000D02*
X108860000Y-56790000D01*
X101140000Y-62760000D02*
X101140000Y-56790000D01*
X101940000Y-58490000D02*
X101940000Y-61960000D01*
X101940000Y-61960000D02*
X102500000Y-61960000D01*
X102540000Y-62760000D02*
X101140000Y-62760000D01*
X103360000Y-56790000D02*
X103360000Y-58490000D01*
X103360000Y-58490000D02*
X101940000Y-58490000D01*
X103360000Y-58490000D02*
X106640000Y-58490000D01*
X103760000Y-57190000D02*
X103760000Y-58090000D01*
X103760000Y-58090000D02*
X106240000Y-58090000D01*
X104460000Y-62760000D02*
X105540000Y-62760000D01*
X104635000Y-61960000D02*
X105365000Y-61960000D01*
X106240000Y-57190000D02*
X103760000Y-57190000D01*
X106240000Y-58090000D02*
X106240000Y-57190000D01*
X106640000Y-56790000D02*
X103360000Y-56790000D01*
X106640000Y-58490000D02*
X106640000Y-56790000D01*
X106640000Y-58490000D02*
X108060000Y-58490000D01*
X108060000Y-58490000D02*
X108060000Y-61960000D01*
X108060000Y-61960000D02*
X107500000Y-61960000D01*
X108860000Y-56790000D02*
X108860000Y-62760000D01*
X108860000Y-62760000D02*
X107460000Y-62760000D01*
%TO.C,C2*%
X103540000Y-96050000D02*
X104230000Y-96050000D01*
X104230000Y-94630000D02*
X104230000Y-97470000D01*
X104230000Y-97470000D02*
X108270000Y-97470000D01*
X108270000Y-94630000D02*
X104230000Y-94630000D01*
X108270000Y-97470000D02*
X108270000Y-94630000D01*
X108960000Y-96050000D02*
X108270000Y-96050000D01*
%TO.C,J8*%
X100840000Y-71560000D02*
X100840000Y-73060000D01*
X100840000Y-73060000D02*
X102340000Y-73060000D01*
X101140000Y-66790000D02*
X110360000Y-66790000D01*
X101140000Y-72760000D02*
X101140000Y-66790000D01*
X101940000Y-68490000D02*
X101940000Y-71960000D01*
X101940000Y-71960000D02*
X102500000Y-71960000D01*
X102540000Y-72760000D02*
X101140000Y-72760000D01*
X103360000Y-66790000D02*
X103360000Y-68490000D01*
X103360000Y-68490000D02*
X101940000Y-68490000D01*
X103360000Y-68490000D02*
X108140000Y-68490000D01*
X103760000Y-67190000D02*
X103760000Y-68090000D01*
X103760000Y-68090000D02*
X107740000Y-68090000D01*
X104460000Y-72760000D02*
X105540000Y-72760000D01*
X104635000Y-71960000D02*
X105365000Y-71960000D01*
X107740000Y-67190000D02*
X103760000Y-67190000D01*
X107740000Y-68090000D02*
X107740000Y-67190000D01*
X108140000Y-66790000D02*
X103360000Y-66790000D01*
X108140000Y-68490000D02*
X108140000Y-66790000D01*
X108140000Y-68490000D02*
X109560000Y-68490000D01*
X109560000Y-68490000D02*
X109560000Y-71960000D01*
X109560000Y-71960000D02*
X107500000Y-71960000D01*
X110360000Y-66790000D02*
X110360000Y-72760000D01*
X110360000Y-72760000D02*
X107460000Y-72760000D01*
%TO.C,J7*%
X115840000Y-81560000D02*
X115840000Y-83060000D01*
X115840000Y-83060000D02*
X117340000Y-83060000D01*
X116140000Y-76790000D02*
X131360000Y-76790000D01*
X116140000Y-82760000D02*
X116140000Y-76790000D01*
X116940000Y-78490000D02*
X116940000Y-81960000D01*
X116940000Y-81960000D02*
X117500000Y-81960000D01*
X117540000Y-82760000D02*
X116140000Y-82760000D01*
X118360000Y-76790000D02*
X118360000Y-78490000D01*
X118360000Y-78490000D02*
X116940000Y-78490000D01*
X118360000Y-78490000D02*
X129140000Y-78490000D01*
X118760000Y-77190000D02*
X118760000Y-78090000D01*
X118760000Y-78090000D02*
X128740000Y-78090000D01*
X119460000Y-82760000D02*
X120540000Y-82760000D01*
X119635000Y-81960000D02*
X120365000Y-81960000D01*
X122460000Y-82760000D02*
X123540000Y-82760000D01*
X122635000Y-81960000D02*
X123365000Y-81960000D01*
X125460000Y-82760000D02*
X126540000Y-82760000D01*
X125635000Y-81960000D02*
X126365000Y-81960000D01*
X128740000Y-77190000D02*
X118760000Y-77190000D01*
X128740000Y-78090000D02*
X128740000Y-77190000D01*
X129140000Y-76790000D02*
X118360000Y-76790000D01*
X129140000Y-78490000D02*
X129140000Y-76790000D01*
X129140000Y-78490000D02*
X130560000Y-78490000D01*
X130560000Y-78490000D02*
X130560000Y-81960000D01*
X130560000Y-81960000D02*
X128500000Y-81960000D01*
X131360000Y-76790000D02*
X131360000Y-82760000D01*
X131360000Y-82760000D02*
X128460000Y-82760000D01*
%TO.C,D1*%
X142870000Y-78664000D02*
X142870000Y-78820000D01*
X142870000Y-80980000D02*
X142870000Y-81136000D01*
X142870001Y-78664485D02*
G75*
G02*
X146102334Y-78821392I1559999J-1235515D01*
G01*
X143389040Y-78820001D02*
G75*
G02*
X145471129Y-78820164I1040960J-1079999D01*
G01*
X145471129Y-80979836D02*
G75*
G02*
X143389040Y-80979999I-1041129J1079836D01*
G01*
X146102334Y-80978608D02*
G75*
G02*
X142870001Y-81135515I-1672334J1078608D01*
G01*
%TO.C,J1*%
X126790000Y-96175000D02*
X128120000Y-96175000D01*
X126790000Y-97505000D02*
X126790000Y-96175000D01*
X129390000Y-96175000D02*
X147230000Y-96175000D01*
X129390000Y-98835000D02*
X129390000Y-96175000D01*
X129390000Y-98835000D02*
X147230000Y-98835000D01*
X147230000Y-98835000D02*
X147230000Y-96175000D01*
%TO.C,U1*%
X111080000Y-53000000D02*
X111080000Y-72240000D01*
X111080000Y-72240000D02*
X161620000Y-72240000D01*
X143700000Y-52620000D02*
X141700000Y-52620000D01*
X161620000Y-53000000D02*
X111080000Y-53000000D01*
X161620000Y-53000000D02*
X161620000Y-72240000D01*
%TO.C,R2*%
X138420095Y-82599358D02*
G75*
G02*
X138517133Y-81150001I-320095J749358D01*
G01*
%TO.C,J10*%
X100840000Y-81560000D02*
X100840000Y-83060000D01*
X100840000Y-83060000D02*
X102340000Y-83060000D01*
X101140000Y-76790000D02*
X113360000Y-76790000D01*
X101140000Y-82760000D02*
X101140000Y-76790000D01*
X101940000Y-78490000D02*
X101940000Y-81960000D01*
X101940000Y-81960000D02*
X102500000Y-81960000D01*
X102540000Y-82760000D02*
X101140000Y-82760000D01*
X103360000Y-76790000D02*
X103360000Y-78490000D01*
X103360000Y-78490000D02*
X101940000Y-78490000D01*
X103360000Y-78490000D02*
X111140000Y-78490000D01*
X103760000Y-77190000D02*
X103760000Y-78090000D01*
X103760000Y-78090000D02*
X110740000Y-78090000D01*
X104460000Y-82760000D02*
X105540000Y-82760000D01*
X104635000Y-81960000D02*
X105365000Y-81960000D01*
X107460000Y-82760000D02*
X108540000Y-82760000D01*
X107635000Y-81960000D02*
X108365000Y-81960000D01*
X110740000Y-77190000D02*
X103760000Y-77190000D01*
X110740000Y-78090000D02*
X110740000Y-77190000D01*
X111140000Y-76790000D02*
X103360000Y-76790000D01*
X111140000Y-78490000D02*
X111140000Y-76790000D01*
X111140000Y-78490000D02*
X112560000Y-78490000D01*
X112560000Y-78490000D02*
X112560000Y-81960000D01*
X112560000Y-81960000D02*
X110500000Y-81960000D01*
X113360000Y-76790000D02*
X113360000Y-82760000D01*
X113360000Y-82760000D02*
X110460000Y-82760000D01*
%TO.C,D3*%
X142870000Y-84214000D02*
X142870000Y-84370000D01*
X142870000Y-86530000D02*
X142870000Y-86686000D01*
X142870001Y-84214485D02*
G75*
G02*
X146102334Y-84371392I1559999J-1235515D01*
G01*
X143389040Y-84370001D02*
G75*
G02*
X145471129Y-84370164I1040960J-1079999D01*
G01*
X145471129Y-86529836D02*
G75*
G02*
X143389040Y-86529999I-1041129J1079836D01*
G01*
X146102334Y-86528608D02*
G75*
G02*
X142870001Y-86685515I-1672334J1078608D01*
G01*
%TO.C,R4*%
X138420095Y-88899358D02*
G75*
G02*
X138517133Y-87450001I-320095J749358D01*
G01*
%TO.C,R3*%
X138420095Y-85749358D02*
G75*
G02*
X138517133Y-84300001I-320095J749358D01*
G01*
%TO.C,J5*%
X100840000Y-51560000D02*
X100840000Y-53060000D01*
X100840000Y-53060000D02*
X102340000Y-53060000D01*
X101140000Y-46790000D02*
X107360000Y-46790000D01*
X101140000Y-52760000D02*
X101140000Y-46790000D01*
X101940000Y-49000000D02*
X101940000Y-51960000D01*
X101940000Y-51960000D02*
X102500000Y-51960000D01*
X102540000Y-52760000D02*
X101140000Y-52760000D01*
X103360000Y-46790000D02*
X103360000Y-48490000D01*
X103360000Y-48490000D02*
X102600000Y-48490000D01*
X103360000Y-48490000D02*
X105140000Y-48490000D01*
X103760000Y-47190000D02*
X103760000Y-48090000D01*
X103760000Y-48090000D02*
X104740000Y-48090000D01*
X104740000Y-47190000D02*
X103760000Y-47190000D01*
X104740000Y-48090000D02*
X104740000Y-47190000D01*
X105140000Y-46790000D02*
X103360000Y-46790000D01*
X105140000Y-48490000D02*
X105140000Y-46790000D01*
X105140000Y-48490000D02*
X106560000Y-48490000D01*
X106560000Y-48490000D02*
X106560000Y-51960000D01*
X106560000Y-51960000D02*
X104500000Y-51960000D01*
X107360000Y-46790000D02*
X107360000Y-52760000D01*
X107360000Y-52760000D02*
X104460000Y-52760000D01*
%TO.C,RV1*%
X103335000Y-87085000D02*
X103335000Y-89105000D01*
X103335000Y-87085000D02*
X104854000Y-87085000D01*
X103335000Y-88095000D02*
X104094000Y-88095000D01*
X103335000Y-89105000D02*
X104854000Y-89105000D01*
X104854000Y-87085000D02*
X104854000Y-89105000D01*
X104855000Y-86705000D02*
X104855000Y-89165000D01*
X104855000Y-86705000D02*
X109510000Y-86705000D01*
X104855000Y-90835000D02*
X104855000Y-93295000D01*
X104855000Y-93295000D02*
X109510000Y-93295000D01*
X111445000Y-88295000D02*
X111445000Y-91705000D01*
%TO.C,R1*%
X138420095Y-79449358D02*
G75*
G02*
X138517133Y-78000001I-320095J749358D01*
G01*
%TD*%
M02*
