%TF.GenerationSoftware,KiCad,Pcbnew,8.0.0*%
%TF.CreationDate,2024-05-08T19:23:15-07:00*%
%TF.ProjectId,CPE301D_KICAD,43504533-3031-4445-9f4b-494341442e6b,rev?*%
%TF.SameCoordinates,Original*%
%TF.FileFunction,Copper,L2,Bot*%
%TF.FilePolarity,Positive*%
%FSLAX46Y46*%
G04 Gerber Fmt 4.6, Leading zero omitted, Abs format (unit mm)*
G04 Created by KiCad (PCBNEW 8.0.0) date 2024-05-08 19:23:15*
%MOMM*%
%LPD*%
G01*
G04 APERTURE LIST*
G04 Aperture macros list*
%AMFreePoly0*
4,1,22,0.145671,0.855970,0.226777,0.801777,0.626777,0.401777,0.680970,0.320671,0.700000,0.225000,0.700000,-0.625000,0.680970,-0.720671,0.626777,-0.801777,0.545671,-0.855970,0.450000,-0.875000,-0.450000,-0.875000,-0.545671,-0.855970,-0.626777,-0.801777,-0.680970,-0.720671,-0.700000,-0.625000,-0.700000,0.625000,-0.680970,0.720671,-0.626777,0.801777,-0.545671,0.855970,-0.450000,0.875000,
0.050000,0.875000,0.145671,0.855970,0.145671,0.855970,$1*%
G04 Aperture macros list end*
%TA.AperFunction,ComponentPad*%
%ADD10C,1.530000*%
%TD*%
%TA.AperFunction,ComponentPad*%
%ADD11C,1.980000*%
%TD*%
%TA.AperFunction,ComponentPad*%
%ADD12R,1.700000X1.700000*%
%TD*%
%TA.AperFunction,ComponentPad*%
%ADD13O,1.700000X1.700000*%
%TD*%
%TA.AperFunction,ComponentPad*%
%ADD14FreePoly0,0.000000*%
%TD*%
%TA.AperFunction,ComponentPad*%
%ADD15O,1.400000X1.750000*%
%TD*%
%TA.AperFunction,ComponentPad*%
%ADD16C,1.600000*%
%TD*%
%TA.AperFunction,ComponentPad*%
%ADD17O,1.600000X1.600000*%
%TD*%
%TA.AperFunction,ComponentPad*%
%ADD18R,1.800000X1.800000*%
%TD*%
%TA.AperFunction,ComponentPad*%
%ADD19C,1.800000*%
%TD*%
%TA.AperFunction,ComponentPad*%
%ADD20R,1.500000X1.500000*%
%TD*%
%TA.AperFunction,ComponentPad*%
%ADD21C,1.500000*%
%TD*%
%TA.AperFunction,ComponentPad*%
%ADD22C,1.400000*%
%TD*%
%TA.AperFunction,ComponentPad*%
%ADD23O,1.400000X1.400000*%
%TD*%
%TA.AperFunction,ViaPad*%
%ADD24C,0.600000*%
%TD*%
%TA.AperFunction,Conductor*%
%ADD25C,0.250000*%
%TD*%
G04 APERTURE END LIST*
D10*
%TO.P,U5,2,TRIG*%
%TO.N,/\u002A9*%
X79125000Y-53730000D03*
%TO.P,U5,3,ECHO*%
%TO.N,/8*%
X79125000Y-56270000D03*
%TO.P,U5,4,GND*%
%TO.N,GND*%
X79125000Y-58810000D03*
%TO.P,U5,1,VCC*%
%TO.N,VCC*%
X79125000Y-51190000D03*
%TD*%
D11*
%TO.P,U2,8,GND*%
%TO.N,GND*%
X82380000Y-93890000D03*
%TO.P,U2,7,B01*%
%TO.N,unconnected-(U2-B01-Pad7)*%
X82380000Y-91350000D03*
%TO.P,U2,6,B02*%
%TO.N,unconnected-(U2-B02-Pad6)*%
X82380000Y-88810000D03*
%TO.P,U2,5,A02*%
%TO.N,Net-(J10-Pin_2)*%
X82380000Y-86270000D03*
%TO.P,U2,4,A01*%
%TO.N,Net-(J10-Pin_1)*%
X82380000Y-83730000D03*
%TO.P,U2,3,GND*%
%TO.N,GND*%
X82380000Y-81190000D03*
%TO.P,U2,2,VCC*%
%TO.N,VCC*%
X82380000Y-78650000D03*
%TO.P,U2,1,VM*%
%TO.N,+5V*%
X82380000Y-76110000D03*
%TO.P,U2,16,PWMA*%
%TO.N,/\u002A6*%
X97620000Y-76110000D03*
%TO.P,U2,15,AI2*%
%TO.N,GND*%
X97620000Y-78650000D03*
%TO.P,U2,14,AI1*%
%TO.N,VCC*%
X97620000Y-81190000D03*
%TO.P,U2,13,STBY*%
%TO.N,+5V*%
X97620000Y-83730000D03*
%TO.P,U2,12,BI1*%
%TO.N,unconnected-(U2-BI1-Pad12)*%
X97620000Y-86270000D03*
%TO.P,U2,11,BI2*%
%TO.N,unconnected-(U2-BI2-Pad11)*%
X97620000Y-88810000D03*
%TO.P,U2,10,PWMB*%
%TO.N,unconnected-(U2-PWMB-Pad10)*%
X97620000Y-91350000D03*
%TO.P,U2,9,GND*%
%TO.N,GND*%
X97620000Y-93890000D03*
%TD*%
D12*
%TO.P,J3,1,Pin_1*%
%TO.N,/A0*%
X150800000Y-97460000D03*
D13*
%TO.P,J3,2,Pin_2*%
%TO.N,/A1*%
X153340000Y-97460000D03*
%TO.P,J3,3,Pin_3*%
%TO.N,/A2*%
X155880000Y-97460000D03*
%TO.P,J3,4,Pin_4*%
%TO.N,/A3*%
X158420000Y-97460000D03*
%TO.P,J3,5,Pin_5*%
%TO.N,/SDA{slash}A4*%
X160960000Y-97460000D03*
%TO.P,J3,6,Pin_6*%
%TO.N,/SCL{slash}A5*%
X163500000Y-97460000D03*
%TD*%
D12*
%TO.P,J2,1,Pin_1*%
%TO.N,/SCL{slash}A5*%
X118796000Y-49200000D03*
D13*
%TO.P,J2,2,Pin_2*%
%TO.N,/SDA{slash}A4*%
X121336000Y-49200000D03*
%TO.P,J2,3,Pin_3*%
%TO.N,/AREF*%
X123876000Y-49200000D03*
%TO.P,J2,4,Pin_4*%
%TO.N,GND*%
X126416000Y-49200000D03*
%TO.P,J2,5,Pin_5*%
%TO.N,/13*%
X128956000Y-49200000D03*
%TO.P,J2,6,Pin_6*%
%TO.N,/12*%
X131496000Y-49200000D03*
%TO.P,J2,7,Pin_7*%
%TO.N,/\u002A11*%
X134036000Y-49200000D03*
%TO.P,J2,8,Pin_8*%
%TO.N,/\u002A10*%
X136576000Y-49200000D03*
%TO.P,J2,9,Pin_9*%
%TO.N,/\u002A9*%
X139116000Y-49200000D03*
%TO.P,J2,10,Pin_10*%
%TO.N,/8*%
X141656000Y-49200000D03*
%TD*%
D12*
%TO.P,J4,1,Pin_1*%
%TO.N,/7*%
X145720000Y-49200000D03*
D13*
%TO.P,J4,2,Pin_2*%
%TO.N,/\u002A6*%
X148260000Y-49200000D03*
%TO.P,J4,3,Pin_3*%
%TO.N,/\u002A5*%
X150800000Y-49200000D03*
%TO.P,J4,4,Pin_4*%
%TO.N,/4*%
X153340000Y-49200000D03*
%TO.P,J4,5,Pin_5*%
%TO.N,/\u002A3*%
X155880000Y-49200000D03*
%TO.P,J4,6,Pin_6*%
%TO.N,/2*%
X158420000Y-49200000D03*
%TO.P,J4,7,Pin_7*%
%TO.N,/TX{slash}1*%
X160960000Y-49200000D03*
%TO.P,J4,8,Pin_8*%
%TO.N,/RX{slash}0*%
X163500000Y-49200000D03*
%TD*%
D14*
%TO.P,J6,1,Pin_1*%
%TO.N,VCC*%
X103500000Y-62000000D03*
D15*
%TO.P,J6,2,Pin_2*%
%TO.N,/PE2*%
X105000000Y-60000000D03*
%TO.P,J6,3,Pin_3*%
%TO.N,GND*%
X106500000Y-62000000D03*
%TD*%
D16*
%TO.P,C2,1*%
%TO.N,/A0*%
X102500000Y-96050000D03*
D17*
%TO.P,C2,2*%
%TO.N,GND*%
X110000000Y-96050000D03*
%TD*%
D14*
%TO.P,J8,1,Pin_1*%
%TO.N,VCC*%
X103500000Y-72000000D03*
D15*
%TO.P,J8,2,Pin_2*%
%TO.N,GND*%
X105000000Y-70000000D03*
%TO.P,J8,3,Pin_3*%
%TO.N,/SCL*%
X106500000Y-72000000D03*
%TO.P,J8,4,Pin_4*%
%TO.N,/SDA*%
X108000000Y-70000000D03*
%TD*%
D14*
%TO.P,J7,1,Pin_1*%
%TO.N,VCC*%
X118500000Y-82000000D03*
D15*
%TO.P,J7,2,Pin_2*%
%TO.N,GND*%
X120000000Y-80000000D03*
%TO.P,J7,3,Pin_3*%
%TO.N,/SCL*%
X121500000Y-82000000D03*
%TO.P,J7,4,Pin_4*%
%TO.N,/SDA*%
X123000000Y-80000000D03*
%TO.P,J7,5,Pin_5*%
%TO.N,unconnected-(J7-Pin_5-Pad5)*%
X124500000Y-82000000D03*
%TO.P,J7,6,Pin_6*%
%TO.N,unconnected-(J7-Pin_6-Pad6)*%
X126000000Y-80000000D03*
%TO.P,J7,7,Pin_7*%
%TO.N,GND*%
X127500000Y-82000000D03*
%TO.P,J7,8,Pin_8*%
%TO.N,unconnected-(J7-Pin_8-Pad8)*%
X129000000Y-80000000D03*
%TD*%
D18*
%TO.P,D1,1,K*%
%TO.N,Net-(D1-K)*%
X143160000Y-79900000D03*
D19*
%TO.P,D1,2,A*%
%TO.N,+5V*%
X145700000Y-79900000D03*
%TD*%
D12*
%TO.P,J1,1,Pin_1*%
%TO.N,unconnected-(J1-Pin_1-Pad1)*%
X128120000Y-97505000D03*
D13*
%TO.P,J1,2,Pin_2*%
%TO.N,/IOREF*%
X130660000Y-97505000D03*
%TO.P,J1,3,Pin_3*%
%TO.N,/~{RESET}*%
X133200000Y-97505000D03*
%TO.P,J1,4,Pin_4*%
%TO.N,+3V3*%
X135740000Y-97505000D03*
%TO.P,J1,5,Pin_5*%
%TO.N,+5V*%
X138280000Y-97505000D03*
%TO.P,J1,6,Pin_6*%
%TO.N,GND*%
X140820000Y-97505000D03*
%TO.P,J1,7,Pin_7*%
X143360000Y-97505000D03*
%TO.P,J1,8,Pin_8*%
%TO.N,VCC*%
X145900000Y-97505000D03*
%TD*%
D20*
%TO.P,U1,1,e*%
%TO.N,Net-(U1-e)*%
X142700000Y-55000000D03*
D21*
%TO.P,U1,2,d*%
%TO.N,Net-(U1-d)*%
X140160000Y-55000000D03*
%TO.P,U1,3,DPX*%
%TO.N,Net-(U1-DPX)*%
X137620000Y-55000000D03*
%TO.P,U1,4,c*%
%TO.N,Net-(U1-c)*%
X135080000Y-55000000D03*
%TO.P,U1,5,g*%
%TO.N,Net-(U1-g)*%
X132540000Y-55000000D03*
%TO.P,U1,6,CC4*%
%TO.N,Net-(U1-CC4)*%
X130000000Y-55000000D03*
%TO.P,U1,7,b*%
%TO.N,Net-(U1-b)*%
X130000000Y-70240000D03*
%TO.P,U1,8,CC3*%
%TO.N,Net-(U1-CC3)*%
X132540000Y-70240000D03*
%TO.P,U1,9,CC2*%
%TO.N,Net-(U1-CC2)*%
X135080000Y-70240000D03*
%TO.P,U1,10,f*%
%TO.N,Net-(U1-f)*%
X137620000Y-70240000D03*
%TO.P,U1,11,a*%
%TO.N,Net-(U1-a)*%
X140160000Y-70240000D03*
%TO.P,U1,12,CC1*%
%TO.N,Net-(U1-CC1)*%
X142700000Y-70240000D03*
%TD*%
D22*
%TO.P,R2,1*%
%TO.N,Net-(D1-K)*%
X138100000Y-81850000D03*
D23*
%TO.P,R2,2*%
%TO.N,/\u002A6*%
X140000000Y-81850000D03*
%TD*%
D14*
%TO.P,J10,1,Pin_1*%
%TO.N,Net-(J10-Pin_1)*%
X103500000Y-82000000D03*
D15*
%TO.P,J10,2,Pin_2*%
%TO.N,Net-(J10-Pin_2)*%
X105000000Y-80000000D03*
%TO.P,J10,3,Pin_3*%
%TO.N,VCC*%
X106500000Y-82000000D03*
%TO.P,J10,4,Pin_4*%
%TO.N,/PE2*%
X108000000Y-80000000D03*
%TO.P,J10,5,Pin_5*%
%TO.N,unconnected-(J10-Pin_5-Pad5)*%
X109500000Y-82000000D03*
%TO.P,J10,6,Pin_6*%
%TO.N,GND*%
X111000000Y-80000000D03*
%TD*%
D18*
%TO.P,D3,1,K*%
%TO.N,Net-(D3-K)*%
X143160000Y-85450000D03*
D19*
%TO.P,D3,2,A*%
%TO.N,+5V*%
X145700000Y-85450000D03*
%TD*%
D22*
%TO.P,R4,1*%
%TO.N,VCC*%
X138100000Y-88150000D03*
D23*
%TO.P,R4,2*%
%TO.N,/2*%
X140000000Y-88150000D03*
%TD*%
D22*
%TO.P,R3,1*%
%TO.N,VCC*%
X138100000Y-85000000D03*
D23*
%TO.P,R3,2*%
%TO.N,/\u002A3*%
X140000000Y-85000000D03*
%TD*%
D14*
%TO.P,J5,1,Pin_1*%
%TO.N,+5V*%
X103500000Y-52000000D03*
D15*
%TO.P,J5,2,Pin_2*%
%TO.N,GND*%
X105000000Y-50000000D03*
%TD*%
D22*
%TO.P,R1,1*%
%TO.N,Net-(D3-K)*%
X138100000Y-78700000D03*
D23*
%TO.P,R1,2*%
%TO.N,/\u002A5*%
X140000000Y-78700000D03*
%TD*%
D24*
%TO.N,Net-(U1-d)*%
X146810500Y-75995600D03*
%TO.N,Net-(U1-e)*%
X147021400Y-77450600D03*
%TO.N,Net-(U1-DPX)*%
X145160600Y-77972100D03*
%TO.N,Net-(U1-CC4)*%
X143233900Y-72352900D03*
%TO.N,VCC*%
X154960000Y-75381400D03*
%TO.N,/4*%
X157469100Y-80445900D03*
%TO.N,/7*%
X154799000Y-59653300D03*
X156512600Y-81570400D03*
%TD*%
D25*
%TO.N,Net-(U1-d)*%
X146810500Y-61650500D02*
X146810500Y-75995600D01*
X140160000Y-55000000D02*
X146810500Y-61650500D01*
%TO.N,Net-(U1-e)*%
X142700000Y-55000000D02*
X142700000Y-56076700D01*
X147438800Y-77033200D02*
X147021400Y-77450600D01*
X147438800Y-60815500D02*
X147438800Y-77033200D01*
X142700000Y-56076700D02*
X147438800Y-60815500D01*
%TO.N,Net-(U1-DPX)*%
X145160600Y-62540600D02*
X145160600Y-77972100D01*
X137620000Y-55000000D02*
X145160600Y-62540600D01*
%TO.N,Net-(U1-CC4)*%
X141236700Y-70355700D02*
X143233900Y-72352900D01*
X141236700Y-66236700D02*
X141236700Y-70355700D01*
X130000000Y-55000000D02*
X141236700Y-66236700D01*
%TO.N,Net-(J10-Pin_2)*%
X91831400Y-95721400D02*
X82380000Y-86270000D01*
X98369200Y-95721400D02*
X91831400Y-95721400D01*
X105000000Y-89090600D02*
X98369200Y-95721400D01*
X105000000Y-80000000D02*
X105000000Y-89090600D01*
%TO.N,Net-(J10-Pin_1)*%
X93885000Y-95235000D02*
X82380000Y-83730000D01*
X98169400Y-95235000D02*
X93885000Y-95235000D01*
X103500000Y-89904400D02*
X98169400Y-95235000D01*
X103500000Y-82000000D02*
X103500000Y-89904400D01*
%TO.N,/PE2*%
X105000000Y-65468800D02*
X105000000Y-60000000D01*
X103942700Y-66526100D02*
X105000000Y-65468800D01*
X103942700Y-70569700D02*
X103942700Y-66526100D01*
X104889200Y-71516200D02*
X103942700Y-70569700D01*
X104889200Y-76889200D02*
X104889200Y-71516200D01*
X106973300Y-78973300D02*
X104889200Y-76889200D01*
X106973300Y-80000000D02*
X106973300Y-78973300D01*
X108000000Y-80000000D02*
X106973300Y-80000000D01*
%TO.N,/SCL*%
X110175100Y-72000000D02*
X106500000Y-72000000D01*
X120175100Y-82000000D02*
X110175100Y-72000000D01*
X121500000Y-82000000D02*
X120175100Y-82000000D01*
%TO.N,/SDA*%
X111973300Y-70000000D02*
X108000000Y-70000000D01*
X121973300Y-80000000D02*
X111973300Y-70000000D01*
X123000000Y-80000000D02*
X121973300Y-80000000D01*
%TO.N,Net-(D3-K)*%
X138340000Y-78700000D02*
X138100000Y-78700000D01*
X143160000Y-83520000D02*
X138340000Y-78700000D01*
X143160000Y-85450000D02*
X143160000Y-83520000D01*
%TO.N,VCC*%
X145900000Y-97505000D02*
X145900000Y-96328300D01*
X106500000Y-79843700D02*
X103428100Y-76771800D01*
X106500000Y-82000000D02*
X106500000Y-79843700D01*
X103500000Y-76699900D02*
X103428100Y-76771800D01*
X103500000Y-72000000D02*
X103500000Y-76699900D01*
X99009900Y-81190000D02*
X97620000Y-81190000D01*
X103428100Y-76771800D02*
X99009900Y-81190000D01*
X142695000Y-93123300D02*
X145900000Y-96328300D01*
X142695000Y-92127500D02*
X142695000Y-93123300D01*
X142077500Y-92127500D02*
X142695000Y-92127500D01*
X138100000Y-88150000D02*
X142077500Y-92127500D01*
X154960000Y-79862500D02*
X154960000Y-75381400D01*
X142695000Y-92127500D02*
X154960000Y-79862500D01*
%TO.N,/\u002A3*%
X140000000Y-85000000D02*
X141026700Y-85000000D01*
X155880000Y-49200000D02*
X155880000Y-50376700D01*
X150471500Y-55785200D02*
X155880000Y-50376700D01*
X150471500Y-78416800D02*
X150471500Y-55785200D01*
X144430000Y-84458300D02*
X150471500Y-78416800D01*
X144430000Y-86464800D02*
X144430000Y-84458300D01*
X144218100Y-86676700D02*
X144430000Y-86464800D01*
X142061700Y-86676700D02*
X144218100Y-86676700D01*
X141026700Y-85641700D02*
X142061700Y-86676700D01*
X141026700Y-85000000D02*
X141026700Y-85641700D01*
%TO.N,/\u002A5*%
X149623300Y-51553400D02*
X150800000Y-50376700D01*
X149623300Y-75744200D02*
X149623300Y-51553400D01*
X146703300Y-78664200D02*
X149623300Y-75744200D01*
X141062500Y-78664200D02*
X146703300Y-78664200D01*
X141026700Y-78700000D02*
X141062500Y-78664200D01*
X140000000Y-78700000D02*
X141026700Y-78700000D01*
X150800000Y-49200000D02*
X150800000Y-50376700D01*
%TO.N,/\u002A6*%
X147083300Y-50009000D02*
X147083300Y-49200000D01*
X146715600Y-50376700D02*
X147083300Y-50009000D01*
X140714800Y-50376700D02*
X146715600Y-50376700D01*
X136524600Y-54566900D02*
X140714800Y-50376700D01*
X136524600Y-57440100D02*
X136524600Y-54566900D01*
X143868700Y-64784200D02*
X136524600Y-57440100D01*
X143868700Y-72674800D02*
X143868700Y-64784200D01*
X143450200Y-73093300D02*
X143868700Y-72674800D01*
X142223200Y-73093300D02*
X143450200Y-73093300D01*
X137054300Y-78262200D02*
X142223200Y-73093300D01*
X137054300Y-79148000D02*
X137054300Y-78262200D01*
X139756300Y-81850000D02*
X137054300Y-79148000D01*
X140000000Y-81850000D02*
X139756300Y-81850000D01*
X148260000Y-49200000D02*
X147083300Y-49200000D01*
%TO.N,/2*%
X158420000Y-49200000D02*
X158420000Y-50376700D01*
X140000000Y-88150000D02*
X141026700Y-88150000D01*
X151148200Y-57648500D02*
X158420000Y-50376700D01*
X151148200Y-81797300D02*
X151148200Y-57648500D01*
X144795500Y-88150000D02*
X151148200Y-81797300D01*
X141026700Y-88150000D02*
X144795500Y-88150000D01*
%TO.N,/4*%
X159605800Y-78309200D02*
X157469100Y-80445900D01*
X159605800Y-48698500D02*
X159605800Y-78309200D01*
X158898200Y-47990900D02*
X159605800Y-48698500D01*
X155358100Y-47990900D02*
X158898200Y-47990900D01*
X154516700Y-48832300D02*
X155358100Y-47990900D01*
X154516700Y-49200000D02*
X154516700Y-48832300D01*
X153340000Y-49200000D02*
X154516700Y-49200000D01*
%TO.N,/7*%
X156512600Y-61366900D02*
X156512600Y-81570400D01*
X154799000Y-59653300D02*
X156512600Y-61366900D01*
%TO.N,/SCL{slash}A5*%
X162323300Y-97827700D02*
X162323300Y-97460000D01*
X160974900Y-99176100D02*
X162323300Y-97827700D01*
X143301700Y-99176100D02*
X160974900Y-99176100D01*
X142090000Y-97964400D02*
X143301700Y-99176100D01*
X142090000Y-95497800D02*
X142090000Y-97964400D01*
X133986800Y-87394600D02*
X142090000Y-95497800D01*
X133986800Y-83359800D02*
X133986800Y-87394600D01*
X118796000Y-68169000D02*
X133986800Y-83359800D01*
X118796000Y-49200000D02*
X118796000Y-68169000D01*
X163500000Y-97460000D02*
X162323300Y-97460000D01*
%TO.N,/SDA{slash}A4*%
X160960000Y-97460000D02*
X159783300Y-97460000D01*
X121336000Y-49200000D02*
X121336000Y-50376700D01*
X121336000Y-65251500D02*
X121336000Y-50376700D01*
X135764300Y-79679800D02*
X121336000Y-65251500D01*
X135764300Y-87370600D02*
X135764300Y-79679800D01*
X144630000Y-96236300D02*
X135764300Y-87370600D01*
X144630000Y-97925600D02*
X144630000Y-96236300D01*
X145391400Y-98687000D02*
X144630000Y-97925600D01*
X158924000Y-98687000D02*
X145391400Y-98687000D01*
X159783300Y-97827700D02*
X158924000Y-98687000D01*
X159783300Y-97460000D02*
X159783300Y-97827700D01*
%TO.N,+5V*%
X90000000Y-65500000D02*
X90000000Y-76110000D01*
X103500000Y-52000000D02*
X90000000Y-65500000D01*
X97620000Y-83730000D02*
X90000000Y-76110000D01*
X90000000Y-76110000D02*
X82380000Y-76110000D01*
%TO.N,GND*%
X106026700Y-60325000D02*
X106500000Y-60798300D01*
X106026700Y-50000000D02*
X106026700Y-60325000D01*
X105000000Y-50000000D02*
X106026700Y-50000000D01*
X106500000Y-62000000D02*
X106500000Y-60798300D01*
X106026700Y-63675000D02*
X106500000Y-63201700D01*
X106026700Y-70000000D02*
X106026700Y-63675000D01*
X106500000Y-62000000D02*
X106500000Y-63201700D01*
X111000000Y-80000000D02*
X109973300Y-80000000D01*
X105000000Y-70000000D02*
X105384900Y-70000000D01*
X105384900Y-70000000D02*
X106026700Y-70000000D01*
X105384900Y-75411600D02*
X105384900Y-70000000D01*
X109973300Y-80000000D02*
X105384900Y-75411600D01*
X81021900Y-92531900D02*
X82380000Y-93890000D01*
X81021900Y-82548100D02*
X81021900Y-92531900D01*
X82380000Y-81190000D02*
X81021900Y-82548100D01*
X79125000Y-77935000D02*
X79125000Y-58810000D01*
X82380000Y-81190000D02*
X79125000Y-77935000D01*
X127693400Y-83201700D02*
X140820000Y-96328300D01*
X127500000Y-83201700D02*
X127693400Y-83201700D01*
X140820000Y-97505000D02*
X140820000Y-96328300D01*
X127500000Y-82000000D02*
X127500000Y-83201700D01*
%TD*%
M02*
